# xmcd
#
# Track frame offsets:
#	150
#	19964
#	43541
#	61808
#	85693
#	102535
#	129462
#	153899
#	173816
#	191418
#	213420
#	233172
#	262923
#	279637
#	308814
#	324711
#
# Disc length: 4706 seconds
#
# Revision: 0
# Processed by: cddbd v1.4PL0 Copyright (c) Steve Scherf et al.
# Submitted via: EasyCDDAExtractor 4.6.9.1
#
DISCID=d6126010
DTITLE=Tony Joe White - Closer To The Truth
DYEAR=1991
DGENRE=Blues
TTITLE0=Tunica Motel
TTITLE1=Ain't Going Down This Time
TTITLE2=Steamy Windows
TTITLE3=(You're Gonna Look) Good In Blues
TTITLE4=Love M.D.
TTITLE5=The Other Side
TTITLE6=Bi-Yo Rhythm
TTITLE7=Cool Town Woman
TTITLE8=Bare Necessities
TTITLE9=Undercover Agent For the Blues
TTITLE10=Main Squeeze
TTITLE11=Closer To the Truth
TTITLE12=Paris Mood Tonight
TTITLE13=Down Again
TTITLE14=Mojo Dollar
TTITLE15=The Path Of A Decent Groove
EXTD=
EXTT0=
EXTT1=
EXTT2=
EXTT3=
EXTT4=
EXTT5=
EXTT6=
EXTT7=
EXTT8=
EXTT9=
EXTT10=
EXTT11=
EXTT12=
EXTT13=
EXTT14=
EXTT15=
PLAYORDER=
